HIERARCHY
ROOT Hips
{
  OFFSET 365.14 88.179 197.519
  CHANNELS 6 Xposition Yposition Zposition Zrotation Xrotation Yrotation
  JOINT RightUpLeg
  {
    OFFSET -9.25084 -1.53971 -0.0324706
    CHANNELS 3 Zrotation Xrotation Yrotation
    JOINT RightLeg
    {
      OFFSET 0.0147984 -41.8767 0.0743683
      CHANNELS 3 Zrotation Xrotation Yrotation
      JOINT RightFoot
      {
        OFFSET 0.58129 -42.7665 -0.0966173
        CHANNELS 3 Zrotation Xrotation Yrotation
        End Site
        {
          OFFSET 0 -7.69 17.5
        }
      }
    }
  }
  JOINT LeftUpLeg
  {
    OFFSET 9.27183 -1.63567 0.0208533
    CHANNELS 3 Zrotation Xrotation Yrotation
    JOINT LeftLeg
    {
      OFFSET 0.0380064 -41.894 -0.0332375
      CHANNELS 3 Zrotation Xrotation Yrotation
      JOINT LeftFoot
      {
        OFFSET -0.00137207 -40.7578 0.276477
        CHANNELS 3 Zrotation Xrotation Yrotation
        End Site
        {
          OFFSET 0 -7.69 17.5
        }
      }
    }
  }
  JOINT Spine
  {
    OFFSET 0.0273715 14.2953 0.0132618
    CHANNELS 3 Zrotation Xrotation Yrotation
    JOINT Spine1
    {
      OFFSET 0.0356242 9.71545 0.0178671
      CHANNELS 3 Zrotation Xrotation Yrotation
      JOINT Spine2
      {
        OFFSET 0.0275401 10.1205 0.00234803
        CHANNELS 3 Zrotation Xrotation Yrotation
        JOINT Spine3
        {
          OFFSET 0.0388833 9.71499 0.00573168
          CHANNELS 3 Zrotation Xrotation Yrotation
          JOINT Neck
          {
            OFFSET 0.0812761 10.3796 0.11061
            CHANNELS 3 Zrotation Xrotation Yrotation
            JOINT Head
            {
              OFFSET 0.0694951 9.4737 0.0873993
              CHANNELS 3 Zrotation Xrotation Yrotation
              End Site
              {
                OFFSET 0 15.95 0
              }
            }
          }
          JOINT RightShoulder
          {
            OFFSET -3.16911 6.92878 0.0176909
            CHANNELS 3 Zrotation Xrotation Yrotation
            JOINT RightArm
            {
              OFFSET -12.7939 0.0472484 0.0511932
              CHANNELS 3 Zrotation Xrotation Yrotation
              JOINT RightForeArm
              {
                OFFSET -26.5086 -0.00989181 0.0576382
                CHANNELS 3 Zrotation Xrotation Yrotation
                JOINT RightHand
                {
                  OFFSET -26.0357 0.339815 -0.212656
                  CHANNELS 3 Zrotation Xrotation Yrotation
                  JOINT RightHandThumb1
                  {
                    OFFSET -2.48905 0.190105 3.12053
                    CHANNELS 3 Zrotation Xrotation Yrotation
                    JOINT RightHandThumb2
                    {
                      OFFSET -3.68274 0 0
                      CHANNELS 3 Zrotation Xrotation Yrotation
                      JOINT RightHandThumb3
                      {
                        OFFSET -2.55832 0 0
                        CHANNELS 3 Zrotation Xrotation Yrotation
                        End Site
                        {
                          OFFSET -2.194 0 0
                        }
                      }
                    }
                  }
                  JOINT RightInHandIndex
                  {
                    OFFSET -3.22368 0.508421 1.97842
                    CHANNELS 3 Zrotation Xrotation Yrotation
                    JOINT RightHandIndex1
                    {
                      OFFSET -5.21684 -0.091368 0.999158
                      CHANNELS 3 Zrotation Xrotation Yrotation
                      JOINT RightHandIndex2
                      {
                        OFFSET -3.61937 0 0
                        CHANNELS 3 Zrotation Xrotation Yrotation
                        JOINT RightHandIndex3
                        {
                          OFFSET -2.0521 0 0
                          CHANNELS 3 Zrotation Xrotation Yrotation
                          End Site
                          {
                            OFFSET -1.805 0 0
                          }
                        }
                      }
                    }
                  }
                  JOINT RightInHandMiddle
                  {
                    OFFSET -3.38211 0.517263 0.756737
                    CHANNELS 3 Zrotation Xrotation Yrotation
                    JOINT RightHandMiddle1
                    {
                      OFFSET -5.17411 -0.084 0.313895
                      CHANNELS 3 Zrotation Xrotation Yrotation
                      JOINT RightHandMiddle2
                      {
                        OFFSET -3.94947 0 0
                        CHANNELS 3 Zrotation Xrotation Yrotation
                        JOINT RightHandMiddle3
                        {
                          OFFSET -2.47579 0 0
                          CHANNELS 3 Zrotation Xrotation Yrotation
                          End Site
                          {
                            OFFSET -1.975 0 0
                          }
                        }
                      }
                    }
                  }
                  JOINT RightInHandRing
                  {
                    OFFSET -3.36516 0.537895 -0.128947
                    CHANNELS 3 Zrotation Xrotation Yrotation
                    JOINT RightHandRing1
                    {
                      OFFSET -4.63474 -0.022105 -0.478947
                      CHANNELS 3 Zrotation Xrotation Yrotation
                      JOINT RightHandRing2
                      {
                        OFFSET -3.44238 0 0
                        CHANNELS 3 Zrotation Xrotation Yrotation
                        JOINT RightHandRing3
                        {
                          OFFSET -2.3881 0 0
                          CHANNELS 3 Zrotation Xrotation Yrotation
                          End Site
                          {
                            OFFSET -1.857 0 0
                          }
                        }
                      }
                    }
                  }
                  JOINT RightInHandPinky
                  {
                    OFFSET -3.16105 0.469368 -1.20179
                    CHANNELS 3 Zrotation Xrotation Yrotation
                    JOINT RightHandPinky1
                    {
                      OFFSET -4.14105 -0.022105 -1.09053
                      CHANNELS 3 Zrotation Xrotation Yrotation
                      JOINT RightHandPinky2
                      {
                        OFFSET -2.75653 0 0
                        CHANNELS 3 Zrotation Xrotation Yrotation
                        JOINT RightHandPinky3
                        {
                          OFFSET -1.74189 0 0
                          CHANNELS 3 Zrotation Xrotation Yrotation
                          End Site
                          {
                            OFFSET -1.645 0 0
                          }
                        }
                      }
                    }
                  }
                }
              }
            }
          }
          JOINT LeftShoulder
          {
            OFFSET 3.24184 6.89832 -0.0228965
            CHANNELS 3 Zrotation Xrotation Yrotation
            JOINT LeftArm
            {
              OFFSET 12.8376 -0.0155948 -0.0448787
              CHANNELS 3 Zrotation Xrotation Yrotation
              JOINT LeftForeArm
              {
                OFFSET 26.5019 -0.0237061 -0.00609661
                CHANNELS 3 Zrotation Xrotation Yrotation
                JOINT LeftHand
                {
                  OFFSET 25.9931 -0.0767526 0.00928659
                  CHANNELS 3 Zrotation Xrotation Yrotation
                  JOINT LeftHandThumb1
                  {
                    OFFSET 2.48905 0.190105 3.12053
                    CHANNELS 3 Zrotation Xrotation Yrotation
                    JOINT LeftHandThumb2
                    {
                      OFFSET 3.68274 0 0
                      CHANNELS 3 Zrotation Xrotation Yrotation
                      JOINT LeftHandThumb3
                      {
                        OFFSET 2.55832 0 0
                        CHANNELS 3 Zrotation Xrotation Yrotation
                        End Site
                        {
                          OFFSET 2.194 0 0
                        }
                      }
                    }
                  }
                  JOINT LeftInHandIndex
                  {
                    OFFSET 3.22368 0.508421 1.97842
                    CHANNELS 3 Zrotation Xrotation Yrotation
                    JOINT LeftHandIndex1
                    {
                      OFFSET 5.21684 -0.091368 0.999158
                      CHANNELS 3 Zrotation Xrotation Yrotation
                      JOINT LeftHandIndex2
                      {
                        OFFSET 3.61937 0 0
                        CHANNELS 3 Zrotation Xrotation Yrotation
                        JOINT LeftHandIndex3
                        {
                          OFFSET 2.0521 0 0
                          CHANNELS 3 Zrotation Xrotation Yrotation
                          End Site
                          {
                            OFFSET 1.805 0 0
                          }
                        }
                      }
                    }
                  }
                  JOINT LeftInHandMiddle
                  {
                    OFFSET 3.38211 0.517263 0.756737
                    CHANNELS 3 Zrotation Xrotation Yrotation
                    JOINT LeftHandMiddle1
                    {
                      OFFSET 5.17411 -0.084 0.313895
                      CHANNELS 3 Zrotation Xrotation Yrotation
                      JOINT LeftHandMiddle2
                      {
                        OFFSET 3.94947 0 0
                        CHANNELS 3 Zrotation Xrotation Yrotation
                        JOINT LeftHandMiddle3
                        {
                          OFFSET 2.47579 0 0
                          CHANNELS 3 Zrotation Xrotation Yrotation
                          End Site
                          {
                            OFFSET 1.975 0 0
                          }
                        }
                      }
                    }
                  }
                  JOINT LeftInHandRing
                  {
                    OFFSET 3.36516 0.537895 -0.128947
                    CHANNELS 3 Zrotation Xrotation Yrotation
                    JOINT LeftHandRing1
                    {
                      OFFSET 4.63474 -0.022105 -0.478947
                      CHANNELS 3 Zrotation Xrotation Yrotation
                      JOINT LeftHandRing2
                      {
                        OFFSET 3.44238 0 0
                        CHANNELS 3 Zrotation Xrotation Yrotation
                        JOINT LeftHandRing3
                        {
                          OFFSET 2.3881 0 0
                          CHANNELS 3 Zrotation Xrotation Yrotation
                          End Site
                          {
                            OFFSET 1.857 0 0
                          }
                        }
                      }
                    }
                  }
                  JOINT LeftInHandPinky
                  {
                    OFFSET 3.16105 0.469368 -1.20179
                    CHANNELS 3 Zrotation Xrotation Yrotation
                    JOINT LeftHandPinky1
                    {
                      OFFSET 4.14105 -0.022105 -1.09053
                      CHANNELS 3 Zrotation Xrotation Yrotation
                      JOINT LeftHandPinky2
                      {
                        OFFSET 2.75653 0 0
                        CHANNELS 3 Zrotation Xrotation Yrotation
                        JOINT LeftHandPinky3
                        {
                          OFFSET 1.74189 0 0
                          CHANNELS 3 Zrotation Xrotation Yrotation
                          End Site
                          {
                            OFFSET 1.645 0 0
                          }
                        }
                      }
                    }
                  }
                }
              }
            }
          }
        }
      }
    }
  }
}
MOTION
Frames: 3
Frame Time: 0.00833333
3.000148588226683728e+02 4.513943033459508029e-03 -2.666375836459437820e-02 7.941349440976275265e-02 1.537456562137984317e-01 1.137850995394093234e-01 -1.572940907889431306e-01 -1.385928101328149364e-01 -1.823692382256985600e-01 1.013097075549400927e-01 6.811624573571031793e-02 -1.360059902462852632e-01 -5.318298987348946127e-02 -3.905312941896711687e-02 -3.120660906180041955e-03 -6.952792311931867662e-03 -1.916889754429468296e-01 -1.360575840191326213e-01 8.421524813760186690e-02 -4.287272688006469462e-02 -5.742813326715522082e-02 -8.713519155801088475e-03 6.108962828625565111e-02 1.770445167577442552e-02 3.861843394786334538e-01 -2.018383418883024083e-01 -2.668417680083023935e-01 8.196619841615362945e-02 -7.345071643085532287e-02 -4.662460651814542834e-02 1.339757967391127236e-01 -1.180710767224546903e-01 -6.597765211775330485e-02 -2.341624047878799672e-02 1.896880595179247300e-02 9.422512257592519438e-03 -2.192316230954116651e-02 2.066302807993214419e-02 6.917817356241607978e-03 -3.122104211518879069e-01 3.301493725029626125e-01 2.364547668413204407e-01 -5.799501782373152059e-01 2.692800498331455183e-01 2.960602511972978967e-01 -4.914537657462782483e-01 3.628727750700590504e-01 1.888958940332276237e-01 1.845446172811022301e+00 -1.091145907858330322e+00 2.045121960319881804e+00 -1.799750455766938373e+00 1.389131680486771048e+00 -2.016764483805485675e+00 0.000000000000000000e+00 0.000000000000000000e+00 0.000000000000000000e+00 -3.899197996924379143e-15 7.099416077037248685e-16 0.000000000000000000e+00 -1.005683168605096434e-17 -4.640528001125848930e-15 0.000000000000000000e+00 -2.068056987502553220e-15 -9.555740106518721842e-16 1.489830485559050838e-15 0.000000000000000000e+00 0.000000000000000000e+00 0.000000000000000000e+00 0.000000000000000000e+00 -1.241062370793825111e-14 -4.422601450497612763e-14 0.000000000000000000e+00 7.718092524283524468e-15 -2.180675246714761460e-14 -2.068056987502553220e-15 -9.555740106518721842e-16 1.489830485559050838e-15 0.000000000000000000e+00 1.465387120309593807e-14 2.893916283989635013e-14 0.000000000000000000e+00 -1.662473149521292656e-14 -3.309754644990926584e-14 0.000000000000000000e+00 -5.731660899461587809e-15 -1.291766719812304475e-14 -2.068056987502553220e-15 -9.555740106518721842e-16 1.489830485559050838e-15 0.000000000000000000e+00 0.000000000000000000e+00 0.000000000000000000e+00 0.000000000000000000e+00 -8.883991827930525858e-15 -8.306140672835209075e-15 0.000000000000000000e+00 3.420042078160741981e-16 -2.443808136702941908e-14 -2.068056987502553220e-15 -9.555740106518721842e-16 1.489830485559050838e-15 0.000000000000000000e+00 0.000000000000000000e+00 0.000000000000000000e+00 0.000000000000000000e+00 -2.130108574013031189e-14 9.708753111446875888e-15 0.000000000000000000e+00 -4.408334746605747987e-15 -1.743293282018277606e-14 -4.041450628894399100e-01 4.868987768348772560e-01 1.128110183687467960e-01 -1.529898243919506906e-01 -2.559391949506891265e-02 4.634279098884329373e-02 4.123550006942364177e-01 -3.790162141467214862e-01 4.550435305460678870e-01 -2.738364501833532305e-01 -3.132600636589440435e-01 -1.696715432934378653e-02 0.000000000000000000e+00 0.000000000000000000e+00 0.000000000000000000e+00 1.424714797862401986e-14 -1.091090973450017820e-14 0.000000000000000000e+00 1.113774157077373206e-14 -6.585268834171971390e-15 0.000000000000000000e+00 7.623138350510444831e-16 1.057573212609015409e-15 8.238476300939807455e-16 0.000000000000000000e+00 0.000000000000000000e+00 0.000000000000000000e+00 0.000000000000000000e+00 3.248471464643007941e-15 9.826600318141564316e-15 0.000000000000000000e+00 2.658999126080851633e-15 5.110431607252659568e-15 7.623138350510444831e-16 1.057573212609015409e-15 8.238476300939807455e-16 0.000000000000000000e+00 -6.677086214284273292e-15 6.765671998873385718e-15 0.000000000000000000e+00 -3.557882084896758382e-15 2.304000387728943899e-15 0.000000000000000000e+00 3.666034755255806357e-15 1.347338655564765800e-14 7.623138350510444831e-16 1.057573212609015409e-15 8.238476300939807455e-16 0.000000000000000000e+00 0.000000000000000000e+00 0.000000000000000000e+00 0.000000000000000000e+00 -1.316935615633899099e-15 8.800799574257796889e-15 0.000000000000000000e+00 9.356183901094411779e-15 7.005351153327486217e-15 7.623138350510444831e-16 1.057573212609015409e-15 8.238476300939807455e-16 0.000000000000000000e+00 0.000000000000000000e+00 0.000000000000000000e+00 0.000000000000000000e+00 2.454825060872209381e-15 2.284179634169097580e-15 0.000000000000000000e+00 1.478079040802521436e-16 9.198262351550312120e-15
3.000117741764819357e+02 1.047297395864042486e-03 -1.379255566713076010e-02 5.891285417608595198e-02 1.149891133877568444e-01 9.725446813862960449e-02 -1.211858452090061461e-01 -1.038618546359364181e-01 -1.408515516234123410e-01 7.899850705948777141e-02 5.516049888118619571e-02 -1.049565300036741644e-01 -4.344845908756681668e-02 -3.082389271641380532e-02 -5.163669327542102887e-03 8.043643473534565569e-04 -1.432221836787627711e-01 -1.130266398649989595e-01 5.680961866989580472e-02 -3.745974302437958536e-02 -3.061316591012149674e-02 -1.007474720441981289e-02 5.593541400330331176e-02 3.328207080279677130e-03 3.321159641881736291e-01 -1.684353631159311304e-01 -2.421940564082831204e-01 7.090665276178650944e-02 -6.079462043382776598e-02 -4.381731111678834750e-02 1.158165884939269669e-01 -9.733806852855862723e-02 -6.289222737185586054e-02 -1.895800504653731219e-02 1.496940061837779591e-02 8.714441529849480117e-03 -1.808351642642341134e-02 1.599062093131349213e-02 7.241403418849713149e-03 -2.875060196678404512e-01 2.858164129620099914e-01 2.344961551142975276e-01 -4.664860931690230639e-01 2.424896350633757858e-01 2.503924731423669559e-01 -5.345334550058565837e-01 4.080809140058654916e-01 2.402642078924008551e-01 1.805706766017070919e+00 -1.128641538230179542e+00 2.045912454554305260e+00 -1.576469762320450885e+00 1.231881538034409918e+00 -1.771164386748117714e+00 0.000000000000000000e+00 0.000000000000000000e+00 0.000000000000000000e+00 -5.200311396823967931e-15 -8.574771863233021346e-16 0.000000000000000000e+00 6.946258157313859717e-15 -3.328666661011459230e-15 0.000000000000000000e+00 -1.669357452579566619e-16 -2.858756638483542800e-17 8.498846623902428888e-17 0.000000000000000000e+00 0.000000000000000000e+00 0.000000000000000000e+00 0.000000000000000000e+00 -3.480225720535939609e-15 -1.296357217886438872e-14 0.000000000000000000e+00 5.376203921965238841e-15 -6.363513022162622912e-15 -1.669357452579566619e-16 -2.858756638483542800e-17 8.498846623902428888e-17 0.000000000000000000e+00 8.431695485165313838e-15 1.673032202415744261e-14 0.000000000000000000e+00 -7.579993759286814964e-15 -1.419008483798713418e-14 0.000000000000000000e+00 -4.457034319488862092e-15 -4.913887327154205927e-15 -1.669357452579566619e-16 -2.858756638483542800e-17 8.498846623902428888e-17 0.000000000000000000e+00 0.000000000000000000e+00 0.000000000000000000e+00 0.000000000000000000e+00 -5.470719284629986379e-15 -5.735389199423825111e-15 0.000000000000000000e+00 -2.352616126177777875e-15 -1.438098802249435271e-14 -1.669357452579566619e-16 -2.858756638483542800e-17 8.498846623902428888e-17 0.000000000000000000e+00 0.000000000000000000e+00 0.000000000000000000e+00 0.000000000000000000e+00 -1.126673303260485520e-14 7.026214303195685242e-15 0.000000000000000000e+00 -4.069388694756136158e-15 -1.112274157302243800e-14 -3.582987206228072652e-01 4.387345903131769087e-01 1.254314994694513408e-01 -1.238439533826369565e-01 -2.245546767189545920e-02 4.015399220901694211e-02 3.297358258784337526e-01 -2.831367290392369784e-01 3.199627146009580980e-01 -2.109797976545687292e-01 -3.472557427751364889e-01 -7.755707577569474591e-03 0.000000000000000000e+00 0.000000000000000000e+00 0.000000000000000000e+00 7.005714030499691382e-15 -8.207792516765997213e-15 0.000000000000000000e+00 3.805418099551773734e-15 -3.673046051110098396e-15 0.000000000000000000e+00 1.162903987794441835e-15 -2.440138838742019448e-16 8.738526278914895893e-16 0.000000000000000000e+00 0.000000000000000000e+00 0.000000000000000000e+00 0.000000000000000000e+00 1.576188197659001827e-15 7.546703702245232504e-15 0.000000000000000000e+00 8.530047966041468570e-16 4.748606808017474460e-15 1.162903987794441835e-15 -2.440138838742019448e-16 8.738526278914895893e-16 0.000000000000000000e+00 -5.168807695079460471e-15 6.429838509539845447e-15 0.000000000000000000e+00 -3.334718342597199677e-15 5.011617754368016297e-15 0.000000000000000000e+00 1.658863397925004216e-15 9.438172609784727364e-15 1.162903987794441835e-15 -2.440138838742019448e-16 8.738526278914895893e-16 0.000000000000000000e+00 0.000000000000000000e+00 0.000000000000000000e+00 0.000000000000000000e+00 -8.892539776286250304e-16 7.745164833245532851e-15 0.000000000000000000e+00 4.706011163147511537e-15 5.966796760374292843e-15 1.162903987794441835e-15 -2.440138838742019448e-16 8.738526278914895893e-16 0.000000000000000000e+00 0.000000000000000000e+00 0.000000000000000000e+00 0.000000000000000000e+00 -1.196528859097106537e-16 3.347263836602473093e-15 0.000000000000000000e+00 2.541618351775298702e-15 5.444487028922175388e-15
3.000108625923622299e+02 -1.274968067409013722e-03 1.129953634196670387e-03 3.617131126104153327e-02 7.140657665700568535e-02 6.618985382660606820e-02 -7.728199569172988781e-02 -6.639118379574525386e-02 -8.380930266936111039e-02 5.686408909060094996e-02 3.799726355591337423e-02 -7.081921795691704935e-02 -3.324674699540335759e-02 -2.082150884421179668e-02 -6.779808200904503118e-03 8.314451286454348569e-03 -9.046915973033246849e-02 -7.681425053389195901e-02 3.010425086232618869e-02 -2.818448892081443918e-02 -6.891857142305433427e-03 -7.083283956221592473e-03 4.632816290128300568e-02 -5.612059765693174634e-03 2.673999524233970360e-01 -1.296041517740199600e-01 -2.011913166589578139e-01 5.757985468223053571e-02 -4.692576415900144571e-02 -3.719874732649744442e-02 9.395641048506983561e-02 -7.500619926922688641e-02 -5.381598966085165275e-02 -1.447705376041132606e-02 1.112561915254952835e-02 7.503948622072851432e-03 -1.403563737085490072e-02 1.167290646006047782e-02 6.761118527036128270e-03 -2.544435702925164078e-01 2.373101881382180811e-01 2.162003065477232366e-01 -3.500185762847222715e-01 2.076723647515440196e-01 1.976583538370276505e-01 -5.155684753621520011e-01 4.132538545089331494e-01 2.453693583383391719e-01 1.715891134304262877e+00 -1.077358775505865784e+00 1.989490862790465275e+00 -1.322742995233996632e+00 1.050338972816547090e+00 -1.488509986635387694e+00 0.000000000000000000e+00 0.000000000000000000e+00 0.000000000000000000e+00 -6.451874469495037159e-15 -1.996794487089462025e-15 0.000000000000000000e+00 1.249164590811488207e-14 -1.969092424875897360e-15 0.000000000000000000e+00 1.440969608262453880e-15 7.652747647054819747e-16 -1.045584850442297582e-15 0.000000000000000000e+00 0.000000000000000000e+00 0.000000000000000000e+00 0.000000000000000000e+00 3.994338699514504603e-15 1.310356324572662972e-14 0.000000000000000000e+00 3.012171447237743124e-15 6.512004495846592201e-15 1.440969608262453880e-15 7.652747647054819747e-16 -1.045584850442297582e-15 0.000000000000000000e+00 2.909833455668466888e-15 6.048519774218166230e-15 0.000000000000000000e+00 1.418113581094855543e-16 2.086554958700780649e-15 0.000000000000000000e+00 -3.196627810342280868e-15 1.692119488009709720e-15 1.440969608262453880e-15 7.652747647054819747e-16 -1.045584850442297582e-15 0.000000000000000000e+00 0.000000000000000000e+00 0.000000000000000000e+00 0.000000000000000000e+00 -2.437178648072504108e-15 -3.051826648689602190e-15 0.000000000000000000e+00 -4.480001802212905409e-15 -5.594417163529365678e-15 1.440969608262453880e-15 7.652747647054819747e-16 -1.045584850442297582e-15 0.000000000000000000e+00 0.000000000000000000e+00 0.000000000000000000e+00 0.000000000000000000e+00 -2.477619257845548639e-15 4.825781919777436843e-15 0.000000000000000000e+00 -3.550205376767124752e-15 -5.641929227543053164e-15 -3.019566302160686666e-01 3.758551819206886746e-01 1.261303029951566235e-01 -8.438687267103599232e-02 -1.582192996365261103e-02 2.613306890125706786e-02 2.363794193329832316e-01 -1.747443131888631873e-01 1.928940317802443905e-01 -1.507530167661271514e-01 -3.446945498855992218e-01 2.171520632311674508e-04 0.000000000000000000e+00 0.000000000000000000e+00 0.000000000000000000e+00 5.846025675479856247e-16 -5.687058542431698476e-15 0.000000000000000000e+00 -2.597099252244156704e-15 -1.114856580872621328e-15 0.000000000000000000e+00 1.427554526044260804e-15 -1.299925474665461277e-15 8.565661258580592324e-16 0.000000000000000000e+00 0.000000000000000000e+00 0.000000000000000000e+00 0.000000000000000000e+00 5.323542315333664940e-17 5.433376650711617775e-15 0.000000000000000000e+00 -6.226426453106691163e-16 4.256610921600777246e-15 1.427554526044260804e-15 -1.299925474665461277e-15 8.565661258580592324e-16 0.000000000000000000e+00 -3.712829778235868055e-15 5.945552860495694972e-15 0.000000000000000000e+00 -2.986671121157345200e-15 7.154033251116668325e-15 0.000000000000000000e+00 -7.954958983080797834e-17 5.628989619997361314e-15 1.427554526044260804e-15 -1.299925474665461277e-15 8.565661258580592324e-16 0.000000000000000000e+00 0.000000000000000000e+00 0.000000000000000000e+00 0.000000000000000000e+00 -5.932975661234367748e-16 6.560193880952060352e-15 0.000000000000000000e+00 6.618332887641402801e-16 4.860855459840740712e-15 1.427554526044260804e-15 -1.299925474665461277e-15 8.565661258580592324e-16 0.000000000000000000e+00 0.000000000000000000e+00 0.000000000000000000e+00 0.000000000000000000e+00 -2.327660519096600777e-15 4.302652065762334112e-15 0.000000000000000000e+00 4.432620871567586992e-15 2.122276506510877763e-15
